<?xml version="1.0" encoding="UTF-8"?>
<svg version="1.1" xmlns="http://www.w3.org/2000/svg" width="128" height="128">
<path d="M0 0 C3.92404756 2.90245854 6.25562914 6.21374692 7.29296875 10.9375 C8.13011333 18.53381194 7.66735541 23.64931918 3.29296875 29.9375 C3.0671435 32.23046794 3.0671435 32.23046794 5.48046875 34.3125 C13.11139169 43.09567056 14.42483036 53.86112478 14.29296875 64.9375 C19.90296875 64.9375 25.51296875 64.9375 31.29296875 64.9375 C34.55877743 70.65266518 35.82910568 73.036957 36.77734375 79.078125 C36.88266418 79.72698669 36.98798462 80.37584839 37.09649658 81.04437256 C37.42507875 83.09026038 37.73403296 85.13856437 38.04296875 87.1875 C38.26439623 88.57571739 38.48704259 89.96374093 38.7109375 91.3515625 C40.29296875 101.30558894 40.29296875 101.30558894 40.29296875 104.9375 C1.68296875 104.9375 -36.92703125 104.9375 -76.70703125 104.9375 C-76.70703125 97.59590845 -75.89029817 91.48685369 -74.45703125 84.375 C-74.25207031 83.27736328 -74.04710938 82.17972656 -73.8359375 81.04882812 C-73.51689453 79.44491211 -73.51689453 79.44491211 -73.19140625 77.80859375 C-73.00288086 76.84880615 -72.81435547 75.88901855 -72.62011719 74.90014648 C-71.70703125 71.9375 -71.70703125 71.9375 -67.70703125 64.9375 C-62.09703125 64.9375 -56.48703125 64.9375 -50.70703125 64.9375 C-50.70703125 62.2975 -50.70703125 59.6575 -50.70703125 56.9375 C-49.36422138 50.16343679 -47.44078569 43.78742509 -43.83203125 37.875 C-41.8420198 34.76111521 -41.8420198 34.76111521 -42.26953125 31.125 C-42.74390625 30.403125 -43.21828125 29.68125 -43.70703125 28.9375 C-46.71432531 23.92534324 -46.28225143 18.6023266 -45.70703125 12.9375 C-43.98333967 6.72395311 -40.09446244 2.3448492 -34.70703125 -1.0625 C-23.90182484 -6.86854435 -10.48496403 -6.52611033 0 0 Z " fill="#484848" transform="translate(84.70703125,12.0625)"/>
<path d="M0 0 C0 1.66666667 0 3.33333333 0 5 C1.0828125 6.175625 1.0828125 6.175625 2.1875 7.375 C9.81842294 16.15817056 11.13186161 26.92362478 11 38 C16.61 38 22.22 38 28 38 C31.26580868 43.71516518 32.53613693 46.099457 33.484375 52.140625 C33.58969543 52.78948669 33.69501587 53.43834839 33.80352783 54.10687256 C34.13211 56.15276038 34.44106421 58.20106437 34.75 60.25 C34.97142748 61.63821739 35.19407384 63.02624093 35.41796875 64.4140625 C37 74.36808894 37 74.36808894 37 78 C-1.61 78 -40.22 78 -80 78 C-80 70.65840845 -79.18326692 64.54935369 -77.75 57.4375 C-77.54503906 56.33986328 -77.34007813 55.24222656 -77.12890625 54.11132812 C-76.91621094 53.04205078 -76.70351562 51.97277344 -76.484375 50.87109375 C-76.29584961 49.91130615 -76.10732422 48.95151855 -75.91308594 47.96264648 C-75 45 -75 45 -71 38 C-65.39 38 -59.78 38 -54 38 C-54 38.66 -54 39.32 -54 40 C-59.28 40 -64.56 40 -70 40 C-70.495 42.475 -70.495 42.475 -71 45 C-64.4 45 -57.8 45 -51 45 C-51 45.33 -51 45.66 -51 46 C-61.395 46.495 -61.395 46.495 -72 47 C-72.52400391 49.76310547 -72.52400391 49.76310547 -73.05859375 52.58203125 C-73.51812161 54.99220801 -73.97776291 57.40236314 -74.4375 59.8125 C-74.66759766 61.02744141 -74.89769531 62.24238281 -75.13476562 63.49414062 C-75.35712891 64.65751953 -75.57949219 65.82089844 -75.80859375 67.01953125 C-76.01282959 68.09307861 -76.21706543 69.16662598 -76.42749023 70.27270508 C-77 73 -77 73 -78 76 C-41.04 76 -4.08 76 34 76 C32.9613511 74.73815391 32.9613511 74.73815391 30.67784119 74.87974548 C29.13562645 74.8830764 29.13562645 74.8830764 27.56225586 74.88647461 C26.40112778 74.88655014 25.23999969 74.88662567 24.04368591 74.88670349 C22.780168 74.89186478 21.51665009 74.89702606 20.21484375 74.90234375 C18.28591026 74.90446617 18.28591026 74.90446617 16.31800842 74.90663147 C12.89356557 74.91045582 9.46916491 74.92028538 6.04473877 74.93133545 C2.55261811 74.94155136 -0.93950934 74.94612947 -4.43164062 74.95117188 C-11.28777778 74.96190773 -18.14388687 74.97898316 -25 75 C-25.99 72.36 -26.98 69.72 -28 67 C-27.01 67 -26.02 67 -25 67 C-25 65.02 -25 63.04 -25 61 C-24.67 61 -24.34 61 -24 61 C-24 63.31 -24 65.62 -24 68 C-23.01 68 -22.02 68 -21 68 C-21 66.02 -21 64.04 -21 62 C-21.99 61.505 -21.99 61.505 -23 61 C-22.34 61 -21.68 61 -21 61 C-21 57.7 -21 54.4 -21 51 C-21.99 51.495 -21.99 51.495 -23 52 C-23.65555119 54.52733235 -23.65555119 54.52733235 -24 57 C-28 52.375 -28 52.375 -28 49 C-31.18762365 46.87491756 -33.26512223 46.4979837 -37 46 C-36.01 45.34 -35.02 44.68 -34 44 C-34 43.34 -34 42.68 -34 42 C-34.99 41.505 -34.99 41.505 -36 41 C-35.01 40.34 -34.02 39.68 -33 39 C-32.65247027 37.3362356 -32.32042606 35.66919622 -32 34 C-28.56797761 28.74751356 -24.169073 25.08218708 -18.69921875 22.10546875 C-16.68370206 20.95341674 -16.68370206 20.95341674 -15 18 C-13.515 18.495 -13.515 18.495 -12 19 C-12.33 19.66 -12.66 20.32 -13 21 C-13.83647486 24.28513122 -13.83647486 24.28513122 -13 28 C-10.93659516 30.07203833 -8.77033387 31.67357861 -6.359375 33.32421875 C-4 35 -4 35 -1.90625 37.16015625 C0.58964896 39.56910791 2.61268384 39.69206217 6 40 C6.66 39.01 7.32 38.02 8 37 C6.68 37 5.36 37 4 37 C4 36.34 4 35.68 4 35 C5.65 35 7.3 35 9 35 C5.66113112 18.45168297 5.66113112 18.45168297 -5 6 C-3.35 4.02 -1.7 2.04 0 0 Z " fill="#494949" transform="translate(88,39)"/>
<path d="M0 0 C4.3741516 2.28513183 7.89540565 5.13219215 10.37890625 9.421875 C11.2186127 12.94864209 11.59701865 16.44301344 12.00390625 20.046875 C12.49890625 21.531875 12.49890625 21.531875 13.00390625 23.046875 C11.72929362 27.29558378 8.36579726 29.41582987 5.00390625 32.046875 C5.45121094 32.40136719 5.89851563 32.75585938 6.359375 33.12109375 C13.67668637 39.5646963 16.82310717 48.28016191 17.81640625 57.859375 C17.89845453 59.25419579 17.9692227 60.65007366 18.00390625 62.046875 C16.35390625 62.046875 14.70390625 62.046875 13.00390625 62.046875 C13.00390625 62.706875 13.00390625 63.366875 13.00390625 64.046875 C14.32390625 64.046875 15.64390625 64.046875 17.00390625 64.046875 C16.34390625 65.366875 15.68390625 66.686875 15.00390625 68.046875 C9.23109731 66.96447332 6.12031348 64.79118222 1.87109375 60.7734375 C-0.08463575 58.87400675 -0.08463575 58.87400675 -2.99609375 57.046875 C-4.99609375 55.046875 -4.99609375 55.046875 -5.37109375 51.421875 C-4.99609375 48.046875 -4.99609375 48.046875 -3.99609375 46.046875 C-4.98609375 45.551875 -4.98609375 45.551875 -5.99609375 45.046875 C-6.23457031 45.64757813 -6.47304687 46.24828125 -6.71875 46.8671875 C-8.28155561 49.53399339 -9.78510465 50.35396945 -12.43359375 51.921875 C-18.5579438 55.98694578 -22.43123124 61.30311571 -26.74609375 67.1328125 C-28.99609375 70.046875 -28.99609375 70.046875 -30.99609375 71.046875 C-38.16596823 71.50210513 -38.16596823 71.50210513 -40.93359375 69.984375 C-42.5077804 67.11379935 -42.69182462 64.2721278 -42.99609375 61.046875 C-42.43921875 61.376875 -41.88234375 61.706875 -41.30859375 62.046875 C-38.51469983 63.25504534 -37.00985718 63.56141998 -33.99609375 63.046875 C-31.55444518 60.98086467 -29.56758957 58.77437804 -27.59375 56.26171875 C-24.11908067 51.92068625 -21.36001841 49.96256238 -15.99609375 48.046875 C-12.67799618 46.93015593 -12.67799618 46.93015593 -9.99609375 45.046875 C-8.54641473 41.4775033 -8.54641473 41.4775033 -7.99609375 38.046875 C-7.00609375 38.046875 -6.01609375 38.046875 -4.99609375 38.046875 C-4.99609375 37.386875 -4.99609375 36.726875 -4.99609375 36.046875 C-6.11886719 36.00949219 -7.24164063 35.97210938 -8.3984375 35.93359375 C-29.36573301 35.07907579 -29.36573301 35.07907579 -35.99609375 28.046875 C-38.40807411 22.87834565 -38.94467717 18.07560075 -37.2265625 12.58984375 C-34.20064638 5.45809091 -29.94275291 2.23762861 -22.99609375 -0.953125 C-15.81138369 -3.34802835 -7.03185131 -2.74540051 0 0 Z " fill="#BE1C17" transform="translate(78.99609375,11.953125)"/>
<path d="M0 0 C0 1.66666667 0 3.33333333 0 5 C1.0828125 6.175625 1.0828125 6.175625 2.1875 7.375 C9.81842294 16.15817056 11.13186161 26.92362478 11 38 C16.61 38 22.22 38 28 38 C31.26580868 43.71516518 32.53613693 46.099457 33.484375 52.140625 C33.58969543 52.78948669 33.69501587 53.43834839 33.80352783 54.10687256 C34.13211 56.15276038 34.44106421 58.20106437 34.75 60.25 C34.97142748 61.63821739 35.19407384 63.02624093 35.41796875 64.4140625 C37 74.36808894 37 74.36808894 37 78 C-1.61 78 -40.22 78 -80 78 C-80 70.65840845 -79.18326692 64.54935369 -77.75 57.4375 C-77.54503906 56.33986328 -77.34007813 55.24222656 -77.12890625 54.11132812 C-76.91621094 53.04205078 -76.70351562 51.97277344 -76.484375 50.87109375 C-76.29584961 49.91130615 -76.10732422 48.95151855 -75.91308594 47.96264648 C-75 45 -75 45 -71 38 C-65.39 38 -59.78 38 -54 38 C-54 38.66 -54 39.32 -54 40 C-59.28 40 -64.56 40 -70 40 C-70.495 42.475 -70.495 42.475 -71 45 C-64.4 45 -57.8 45 -51 45 C-51 45.33 -51 45.66 -51 46 C-61.395 46.495 -61.395 46.495 -72 47 C-72.52400391 49.76310547 -72.52400391 49.76310547 -73.05859375 52.58203125 C-73.51812161 54.99220801 -73.97776291 57.40236314 -74.4375 59.8125 C-74.66759766 61.02744141 -74.89769531 62.24238281 -75.13476562 63.49414062 C-75.35712891 64.65751953 -75.57949219 65.82089844 -75.80859375 67.01953125 C-76.01282959 68.09307861 -76.21706543 69.16662598 -76.42749023 70.27270508 C-77 73 -77 73 -78 76 C-41.04 76 -4.08 76 34 76 C31.37044168 58.28122 31.37044168 58.28122 27 41 C23.95760755 41.11446625 20.91655331 41.24120733 17.875 41.375 C16.59109375 41.42140625 16.59109375 41.42140625 15.28125 41.46875 C11.38431872 41.64860837 8.31503363 41.88626814 4.61328125 43.22265625 C3.31970703 43.60744141 3.31970703 43.60744141 2 44 C-0.01171875 42.84765625 -0.01171875 42.84765625 -1.6875 41.0625 C-3.30373039 39.29202681 -3.30373039 39.29202681 -5 38 C-6.485 38.495 -6.485 38.495 -8 39 C-7.505 42.465 -7.505 42.465 -7 46 C-5.35 46.66 -3.7 47.32 -2 48 C-2 48.33 -2 48.66 -2 49 C-3.99954746 49.04254356 -6.00041636 49.04080783 -8 49 C-8.33 48.67 -8.66 48.34 -9 48 C-11.32817964 47.63239269 -13.6618385 47.29758419 -16 47 C-15.505 49.97 -15.505 49.97 -15 53 C-16.32 52.67 -17.64 52.34 -19 52 C-18.49369832 58.39820248 -18.49369832 58.39820248 -17.3125 64.6875 C-16.85361965 68.08321457 -17.93123109 70.79369328 -19 74 C-19.66 74 -20.32 74 -21 74 C-21 72.68 -21 71.36 -21 70 C-21.99 70 -22.98 70 -24 70 C-24 70.99 -24 71.98 -24 73 C-24.66 73 -25.32 73 -26 73 C-26.66 71.02 -27.32 69.04 -28 67 C-27.01 67 -26.02 67 -25 67 C-25 65.02 -25 63.04 -25 61 C-24.67 61 -24.34 61 -24 61 C-24 63.31 -24 65.62 -24 68 C-23.01 68 -22.02 68 -21 68 C-21 66.02 -21 64.04 -21 62 C-21.99 61.505 -21.99 61.505 -23 61 C-22.34 61 -21.68 61 -21 61 C-21 57.7 -21 54.4 -21 51 C-21.99 51.495 -21.99 51.495 -23 52 C-23.65555119 54.52733235 -23.65555119 54.52733235 -24 57 C-28 52.375 -28 52.375 -28 49 C-31.18762365 46.87491756 -33.26512223 46.4979837 -37 46 C-36.01 45.34 -35.02 44.68 -34 44 C-34 43.34 -34 42.68 -34 42 C-34.99 41.505 -34.99 41.505 -36 41 C-35.01 40.34 -34.02 39.68 -33 39 C-32.65247027 37.3362356 -32.32042606 35.66919622 -32 34 C-28.56797761 28.74751356 -24.169073 25.08218708 -18.69921875 22.10546875 C-16.68370206 20.95341674 -16.68370206 20.95341674 -15 18 C-13.515 18.495 -13.515 18.495 -12 19 C-12.33 19.66 -12.66 20.32 -13 21 C-13.83647486 24.28513122 -13.83647486 24.28513122 -13 28 C-10.93659516 30.07203833 -8.77033387 31.67357861 -6.359375 33.32421875 C-4 35 -4 35 -1.90625 37.16015625 C0.58964896 39.56910791 2.61268384 39.69206217 6 40 C6.66 39.01 7.32 38.02 8 37 C6.68 37 5.36 37 4 37 C4 36.34 4 35.68 4 35 C5.65 35 7.3 35 9 35 C5.66113112 18.45168297 5.66113112 18.45168297 -5 6 C-3.35 4.02 -1.7 2.04 0 0 Z " fill="#020302" transform="translate(88,39)"/>
<path d="M0 0 C4.07430411 3.0135972 5.85599434 6.1475853 7.29296875 10.9375 C7.60683299 13.97152099 7.76665397 16.91698776 7.29296875 19.9375 C6.63296875 20.5975 5.97296875 21.2575 5.29296875 21.9375 C5.23689453 20.95910156 5.23689453 20.95910156 5.1796875 19.9609375 C4.65285179 12.95712156 3.66433675 8.36401609 -1.39453125 3.1875 C-8.18382246 -1.96242577 -17.55821626 -2.09518393 -25.70703125 -1.0625 C-32.43955276 0.94461322 -37.53203961 3.57340022 -40.95703125 9.875 C-43.24352686 15.57417563 -43.348817 19.71012592 -41.64453125 25.625 C-38.92615662 30.27254372 -35.85322533 32.10653799 -30.5625 33.50390625 C-26.51821756 34.11801754 -22.47769948 34.30341495 -18.39453125 34.5 C-17.55857422 34.54318359 -16.72261719 34.58636719 -15.86132812 34.63085938 C-13.8100619 34.73635307 -11.75856645 34.83737315 -9.70703125 34.9375 C-10.03703125 35.9275 -10.36703125 36.9175 -10.70703125 37.9375 C-11.69703125 37.9375 -12.68703125 37.9375 -13.70703125 37.9375 C-13.78953125 39.030625 -13.87203125 40.12375 -13.95703125 41.25 C-14.70703125 44.9375 -14.70703125 44.9375 -16.26953125 46.6875 C-18.39723677 47.77863103 -20.39198681 48.53898474 -22.64453125 49.3125 C-27.96322059 51.21343897 -30.83119759 54.86582552 -34.33203125 59.125 C-36.70703125 61.9375 -36.70703125 61.9375 -39.70703125 63.9375 C-46.27306899 63.37146226 -46.27306899 63.37146226 -47.70703125 61.9375 C-47.25999139 66.41633696 -47.25999139 66.41633696 -44.70703125 69.9375 C-38.38995798 70.39134636 -38.38995798 70.39134636 -32.70703125 67.9375 C-30.68245745 69.87004772 -29.28597333 71.56908688 -27.70703125 73.9375 C-41.23703125 73.9375 -54.76703125 73.9375 -68.70703125 73.9375 C-68.04703125 71.6275 -67.38703125 69.3175 -66.70703125 66.9375 C-61.42703125 66.9375 -56.14703125 66.9375 -50.70703125 66.9375 C-50.78953125 65.57625 -50.87203125 64.215 -50.95703125 62.8125 C-50.94454681 54.01096858 -48.39756444 45.37998607 -43.83203125 37.875 C-41.8420198 34.76111521 -41.8420198 34.76111521 -42.26953125 31.125 C-42.74390625 30.403125 -43.21828125 29.68125 -43.70703125 28.9375 C-46.71432531 23.92534324 -46.28225143 18.6023266 -45.70703125 12.9375 C-43.98333967 6.72395311 -40.09446244 2.3448492 -34.70703125 -1.0625 C-23.90182484 -6.86854435 -10.48496403 -6.52611033 0 0 Z M-30.70703125 63.9375 C-30.04703125 63.9375 -29.38703125 63.9375 -28.70703125 63.9375 C-29.03703125 64.9275 -29.36703125 65.9175 -29.70703125 66.9375 C-30.69703125 67.2675 -31.68703125 67.5975 -32.70703125 67.9375 C-32.04703125 66.6175 -31.38703125 65.2975 -30.70703125 63.9375 Z " fill="#142214" transform="translate(84.70703125,12.0625)"/>
<path d="M0 0 C2.61934309 1.16415249 4.26259816 2.24877721 6.375 4.25 C7.24125 4.8275 8.1075 5.405 9 6 C9.84046875 5.70867187 10.6809375 5.41734375 11.546875 5.1171875 C16.07492068 3.65223154 20.1538765 3.78256837 24.875 3.875 C25.75414063 3.88402344 26.63328125 3.89304687 27.5390625 3.90234375 C29.6928271 3.92575423 31.84645014 3.9616199 34 4 C34.66 5.98 35.32 7.96 36 10 C28.41 10 20.82 10 13 10 C14.32 12.97 15.64 15.94 17 19 C17 19.99 17 20.98 17 22 C18.98 22 20.96 22 23 22 C23.56561146 27.65611463 21.71391278 31.22642128 19 36 C16.69 36 14.38 36 12 36 C12 33.03 12 30.06 12 27 C10.02 27 8.04 27 6 27 C7.16651426 21.07136283 8.75519358 15.61201606 11 10 C9.700625 10.5878125 9.700625 10.5878125 8.375 11.1875 C5 12 5 12 1.6875 11.0625 C-1 9 -1 9 -2 5.4375 C-2 2 -2 2 0 0 Z " fill="#100B0B" transform="translate(81,76)"/>
<path d="M0 0 C0.391875 1.11375 0.78375 2.2275 1.1875 3.375 C2.42482967 6.31960666 2.73606497 6.85882545 5.6875 8.4375 C6.450625 8.623125 7.21375 8.80875 8 9 C8 9.66 8 10.32 8 11 C7.34 11 6.68 11 6 11 C6 11.66 6 12.32 6 13 C5.34 13 4.68 13 4 13 C3.34 12.01 2.68 11.02 2 10 C0.824375 10.2784375 0.824375 10.2784375 -0.375 10.5625 C-3 11 -3 11 -5 10 C-5 10.66 -5 11.32 -5 12 C-5.99 12.33 -6.98 12.66 -8 13 C-5.69 13.33 -3.38 13.66 -1 14 C-0.67 15.65 -0.34 17.3 0 19 C0.66 18.01 1.32 17.02 2 16 C2.99 16.33 3.98 16.66 5 17 C5.33 18.65 5.66 20.3 6 22 C4.02 22 2.04 22 0 22 C0.33 23.98 0.66 25.96 1 28 C-0.32 27.67 -1.64 27.34 -3 27 C-2.49369832 33.39820248 -2.49369832 33.39820248 -1.3125 39.6875 C-0.85361965 43.08321457 -1.93123109 45.79369328 -3 49 C-3.66 49 -4.32 49 -5 49 C-5 47.68 -5 46.36 -5 45 C-5.99 45 -6.98 45 -8 45 C-8 45.99 -8 46.98 -8 48 C-8.66 48 -9.32 48 -10 48 C-10.66 46.02 -11.32 44.04 -12 42 C-11.01 42 -10.02 42 -9 42 C-9 40.02 -9 38.04 -9 36 C-8.67 36 -8.34 36 -8 36 C-8 38.31 -8 40.62 -8 43 C-7.01 43 -6.02 43 -5 43 C-5 41.02 -5 39.04 -5 37 C-5.66 36.67 -6.32 36.34 -7 36 C-6.34 36 -5.68 36 -5 36 C-5 32.7 -5 29.4 -5 26 C-5.66 26.33 -6.32 26.66 -7 27 C-7.65555119 29.52733235 -7.65555119 29.52733235 -8 32 C-12 27.375 -12 27.375 -12 24 C-15.18762365 21.87491756 -17.26512223 21.4979837 -21 21 C-20.01 20.34 -19.02 19.68 -18 19 C-18 18.34 -18 17.68 -18 17 C-18.66 16.67 -19.32 16.34 -20 16 C-19.29875 15.505 -18.5975 15.01 -17.875 14.5 C-15.40630889 12.35331208 -13.95499227 10.63676305 -12.125 8 C-9.2112248 3.95392874 -5.34977839 0 0 0 Z " fill="#150C0B" transform="translate(72,64)"/>
<path d="M0 0 C0.82242188 0.20496094 1.64484375 0.40992188 2.4921875 0.62109375 C9.33104455 2.27158004 15.97675688 3.54023916 23 4 C22.6875 6.875 22.6875 6.875 22 10 C19 12 19 12 15.75 12.75 C9.56197727 14.81267424 5.87984644 18.8136021 1.9375 23.875 C-0.27900102 26.56688997 -0.63151375 26.93622353 -4.25 27.5625 C-7 27 -7 27 -9 25 C-8.83233334 15.94600013 -4.73400993 7.57164746 0 0 Z " fill="#49F6FB" transform="translate(46,46)"/>
<path d="M0 0 C4.5096898 1.96576222 6.58961914 5.25330941 8.60546875 9.5546875 C11.01219001 15.68878572 12.1523868 21.49064084 12.4375 28.0625 C6.99570201 28.18079996 4.3703958 26.55269682 0.25 23 C-4.27419787 18.65484193 -8.08064079 14.43246456 -8.7890625 8.0078125 C-8.8125 6.0625 -8.8125 6.0625 -8.5625 3.0625 C-5.63477661 1.36033524 -3.42428142 0.08351906 0 0 Z " fill="#47F2F6" transform="translate(84.5625,45.9375)"/>
<path d="M0 0 C4.07430411 3.0135972 5.85599434 6.1475853 7.29296875 10.9375 C7.60683299 13.97152099 7.76665397 16.91698776 7.29296875 19.9375 C6.63296875 20.5975 5.97296875 21.2575 5.29296875 21.9375 C5.23689453 20.95910156 5.23689453 20.95910156 5.1796875 19.9609375 C4.65285179 12.95712156 3.66433675 8.36401609 -1.39453125 3.1875 C-8.18382246 -1.96242577 -17.55821626 -2.09518393 -25.70703125 -1.0625 C-32.43955276 0.94461322 -37.53203961 3.57340022 -40.95703125 9.875 C-43.24352686 15.57417563 -43.348817 19.71012592 -41.64453125 25.625 C-39.00769926 30.13313212 -35.48668171 32.16880731 -30.54321289 33.53588867 C-28.29067796 33.9871818 -26.04271969 34.35635858 -23.76953125 34.6875 C-22.99029297 34.81253906 -22.21105469 34.93757813 -21.40820312 35.06640625 C-19.50975733 35.36922582 -17.60862887 35.65514805 -15.70703125 35.9375 C-15.70703125 36.2675 -15.70703125 36.5975 -15.70703125 36.9375 C-34.78101176 37.38984736 -34.78101176 37.38984736 -39.70703125 34.9375 C-44.32331874 30.41041613 -45.86410557 25.63881357 -46.01953125 19.25 C-45.93908518 12.58102058 -44.59547461 8.31258327 -40.26953125 3.2578125 C-29.55905089 -7.092219 -12.43341557 -7.73887651 0 0 Z " fill="#080101" transform="translate(84.70703125,12.0625)"/>
<path d="M0 0 C0.99 0 1.98 0 3 0 C3.42979175 4.29791754 3.36028389 6.43705642 1 10.125 C-1.02382336 12.30711123 -3.01042669 13.61201664 -5.625 15 C-11.3459498 18.27535294 -14.81652435 23.82592898 -18.6796875 29.015625 C-21 32 -21 32 -23 33 C-30.16987448 33.45523013 -30.16987448 33.45523013 -32.9375 31.9375 C-34.51168665 29.06692435 -34.69573087 26.2252528 -35 23 C-34.443125 23.33 -33.88625 23.66 -33.3125 24 C-30.51860608 25.20817034 -29.01376343 25.51454498 -26 25 C-23.55835143 22.93398967 -21.57149582 20.72750304 -19.59765625 18.21484375 C-16.12298692 13.87381125 -13.36392466 11.91568738 -8 10 C-4.68190243 8.88328093 -4.68190243 8.88328093 -2 7 C-0.55032098 3.4306283 -0.55032098 3.4306283 0 0 Z " fill="#F1EC06" transform="translate(71,50)"/>
<path d="M0 0 C0.99 0.33 1.98 0.66 3 1 C2.67 1.66 2.34 2.32 2 3 C1.16352514 6.28513122 1.16352514 6.28513122 2 10 C4.06340484 12.07203833 6.22966613 13.67357861 8.640625 15.32421875 C11.0336608 17.02390809 12.9445877 18.91410489 15 21 C17.13309192 22.23512079 17.13309192 22.23512079 19 23 C18.34 23 17.68 23 17 23 C16.67 23.66 16.34 24.32 16 25 C14.53515625 23.66536458 13.0703125 22.33072917 11.60546875 20.99609375 C11.07566406 20.66738281 10.54585937 20.33867188 10 20 C9.01 20.33 8.02 20.66 7 21 C7.33 23.31 7.66 25.62 8 28 C9.65 28.66 11.3 29.32 13 30 C13 30.33 13 30.66 13 31 C10.125 31.125 10.125 31.125 7 31 C6.34 30.34 5.68 29.68 5 29 C3.68252676 28.30251417 2.35085807 27.63040043 1 27 C1.99 27 2.98 27 4 27 C3.67 26.01 3.34 25.02 3 24 C2.34 23.67 1.68 23.34 1 23 C0.34 24.32 -0.32 25.64 -1 27 C-1.33 27 -1.66 27 -2 27 C-2 25.02 -2 23.04 -2 21 C-5.63 21 -9.26 21 -13 21 C-12.67 20.34 -12.34 19.68 -12 19 C-10.02 19 -8.04 19 -6 19 C-6 18.34 -6 17.68 -6 17 C-4.02 17.33 -2.04 17.66 0 18 C0.33 17.34 0.66 16.68 1 16 C1.66 17.32 2.32 18.64 3 20 C3.66 20 4.32 20 5 20 C5 19.34 5 18.68 5 18 C5.66 18 6.32 18 7 18 C7 17.34 7 16.68 7 16 C-0.425 15.01 -0.425 15.01 -8 14 C-8 13.67 -8 13.34 -8 13 C-5.36 12.67 -2.72 12.34 0 12 C-0.33 10.35 -0.66 8.7 -1 7 C-7.84479427 10.16381602 -11.96294226 13.61986561 -16 20 C-16.66 19.67 -17.32 19.34 -18 19 C-14.81073794 12.18928615 -10.28998381 7.74875078 -3.734375 4.140625 C-1.68983298 2.95767089 -1.68983298 2.95767089 0 0 Z " fill="#1B0B02" transform="translate(73,57)"/>
<path d="M0 0 C0.99 0 1.98 0 3 0 C2.8125 2.8125 2.8125 2.8125 2 6 C-0.5625 7.875 -0.5625 7.875 -3 9 C-2.01 6.03 -1.02 3.06 0 0 Z M-8 12 C-6.68 12.66 -5.36 13.32 -4 14 C-8.455 15.485 -8.455 15.485 -13 17 C-11.41476807 26.22316762 -8.78561841 32.11391119 -1.1875 37.8125 C-0.39730469 38.35519531 0.39289063 38.89789063 1.20703125 39.45703125 C1.79871094 39.96621094 2.39039062 40.47539063 3 41 C3 41.99 3 42.98 3 44 C4.32 44 5.64 44 7 44 C6.34 45.32 5.68 46.64 5 48 C-0.77280894 46.91759832 -3.88359277 44.74430722 -8.1328125 40.7265625 C-10.088542 38.82713175 -10.088542 38.82713175 -13 37 C-15 35 -15 35 -15.3125 31.4375 C-15.209375 30.303125 -15.10625 29.16875 -15 28 C-14.9593739 25.1377796 -14.9593739 25.1377796 -15.17578125 22.84375 C-15.3136838 20.47970621 -15.36275762 18.34262751 -15 16 C-12.625 14 -12.625 14 -10 13 C-9.34 12.67 -8.68 12.34 -8 12 Z " fill="#160A0A" transform="translate(89,32)"/>
<path d="M0 0 C0.391875 1.11375 0.78375 2.2275 1.1875 3.375 C2.42482967 6.31960666 2.73606497 6.85882545 5.6875 8.4375 C6.450625 8.623125 7.21375 8.80875 8 9 C8 9.66 8 10.32 8 11 C7.34 11 6.68 11 6 11 C6 11.66 6 12.32 6 13 C5.34 13 4.68 13 4 13 C3.34 12.01 2.68 11.02 2 10 C0.824375 10.2784375 0.824375 10.2784375 -0.375 10.5625 C-3 11 -3 11 -5 10 C-5 10.66 -5 11.32 -5 12 C-6.11375 12.226875 -7.2275 12.45375 -8.375 12.6875 C-12.16038373 13.60623658 -12.16038373 13.60623658 -13.4375 16.625 C-13.623125 17.40875 -13.80875 18.1925 -14 19 C-15.32 17.68 -16.64 16.36 -18 15 C-6.59482759 0 -6.59482759 0 0 0 Z " fill="#B61B16" transform="translate(72,64)"/>
<path d="M0 0 C0.4125 0.556875 0.825 1.11375 1.25 1.6875 C1.8275 2.450625 2.405 3.21375 3 4 C3.804375 5.1446875 3.804375 5.1446875 4.625 6.3125 C9.1461406 11.42852752 14.05896348 16.06963179 21 17 C20.34 18.32 19.68 19.64 19 21 C13.22719106 19.91759832 10.11640723 17.74430722 5.8671875 13.7265625 C3.911458 11.82713175 3.911458 11.82713175 1 10 C-1 8 -1 8 -1.375 4.3125 C-1 1 -1 1 0 0 Z " fill="#ECE705" transform="translate(75,59)"/>
<path d="M0 0 C0.99 0.66 1.98 1.32 3 2 C3 2.66 3 3.32 3 4 C3.99 4 4.98 4 6 4 C6.3403125 5.918125 6.3403125 5.918125 6.6875 7.875 C7.16100084 10.06932132 7.16100084 10.06932132 8 12 C10.48313064 13.59688639 10.48313064 13.59688639 13 14 C13 14.33 13 14.66 13 15 C10.125 15.125 10.125 15.125 7 15 C6.34 14.34 5.68 13.68 5 13 C3.68252676 12.30251417 2.35085807 11.63040043 1 11 C1.99 11 2.98 11 4 11 C3.67 10.01 3.34 9.02 3 8 C2.34 7.67 1.68 7.34 1 7 C0.34 8.32 -0.32 9.64 -1 11 C-1.33 11 -1.66 11 -2 11 C-2 9.02 -2 7.04 -2 5 C-5.63 5 -9.26 5 -13 5 C-12.67 4.34 -12.34 3.68 -12 3 C-10.02 3 -8.04 3 -6 3 C-6 2.34 -6 1.68 -6 1 C-3.03 1.495 -3.03 1.495 0 2 C0 1.34 0 0.68 0 0 Z " fill="#090303" transform="translate(73,73)"/>
<path d="M0 0 C0.33 0 0.66 0 1 0 C1.12375 0.73605469 1.2475 1.47210937 1.375 2.23046875 C2.73563119 8.99120747 2.73563119 8.99120747 7.125 14 C13.70568558 17.41450667 21.74665858 17.98618069 29 19 C29 19.33 29 19.66 29 20 C9.92601949 20.45234736 9.92601949 20.45234736 5 18 C1.00741023 14.08456172 -0.93131741 9.99179514 -1.125 4.375 C-1 1 -1 1 0 0 Z " fill="#090303" transform="translate(40,29)"/>
<path d="M0 0 C1.32 0.33 2.64 0.66 4 1 C3.34 1 2.68 1 2 1 C2.50630168 7.39820248 2.50630168 7.39820248 3.6875 13.6875 C4.14638035 17.08321457 3.06876891 19.79369328 2 23 C1.34 23 0.68 23 0 23 C0 21.68 0 20.36 0 19 C-0.99 19 -1.98 19 -3 19 C-3 19.99 -3 20.98 -3 22 C-3.66 22 -4.32 22 -5 22 C-5.66 20.02 -6.32 18.04 -7 16 C-6.01 16 -5.02 16 -4 16 C-4 14.02 -4 12.04 -4 10 C-3.67 10 -3.34 10 -3 10 C-3 12.31 -3 14.62 -3 17 C-2.01 17 -1.02 17 0 17 C0 15.02 0 13.04 0 11 C-0.66 10.67 -1.32 10.34 -2 10 C-1.34 10 -0.68 10 0 10 C0 6.7 0 3.4 0 0 Z " fill="#0A0A0A" transform="translate(67,90)"/>
<path d="M0 0 C1.26650391 0.00966797 1.26650391 0.00966797 2.55859375 0.01953125 C3.43128906 0.03628906 4.30398437 0.05304688 5.203125 0.0703125 C6.53537109 0.08384766 6.53537109 0.08384766 7.89453125 0.09765625 C10.08100558 0.12116673 12.26692594 0.15402751 14.453125 0.1953125 C14.783125 1.5153125 15.113125 2.8353125 15.453125 4.1953125 C7.533125 4.1953125 -0.386875 4.1953125 -8.546875 4.1953125 C-8.546875 3.5353125 -8.546875 2.8753125 -8.546875 2.1953125 C-5.55561181 0.47325062 -3.44001787 -0.04648673 0 0 Z " fill="#484848" transform="translate(100.546875,79.8046875)"/>
<path d="M0 0 C0.125 3.375 0.125 3.375 0 7 C-2 9 -2 9 -5 9.1875 C-8 9 -8 9 -10 8 C-10.1875 4.625 -10.1875 4.625 -10 1 C-6.1496895 -1.56687367 -4.41430237 -0.83288724 0 0 Z " fill="#B91B17" transform="translate(71,78)"/>
<path d="M0 0 C0.66 0 1.32 0 2 0 C1.67 0.99 1.34 1.98 1 3 C0.01 3.33 -0.98 3.66 -2 4 C-1.34 2.68 -0.68 1.36 0 0 Z M-3 4 C-2.01 4.33 -1.02 4.66 0 5 C0.495 6.485 0.495 6.485 1 8 C1.66 8.66 2.32 9.32 3 10 C-10.53 10 -24.06 10 -38 10 C-38 9.67 -38 9.34 -38 9 C-29.42 8.67 -20.84 8.34 -12 8 C-12 7.67 -12 7.34 -12 7 C-11.43410156 6.86722656 -10.86820313 6.73445313 -10.28515625 6.59765625 C-9.55167969 6.42105469 -8.81820312 6.24445313 -8.0625 6.0625 C-7.33160156 5.88847656 -6.60070312 5.71445313 -5.84765625 5.53515625 C-4.00030102 5.16112431 -4.00030102 5.16112431 -3 4 Z " fill="#1B1A14" transform="translate(54,76)"/>
<path d="M0 0 C0.66 0 1.32 0 2 0 C2 5.61 2 11.22 2 17 C0.35 16.67 -1.3 16.34 -3 16 C-3.144375 14.865625 -3.28875 13.73125 -3.4375 12.5625 C-3.61171478 9.19222799 -3.61171478 9.19222799 -5 8 C-5.04080783 6.00041636 -5.04254356 3.99954746 -5 2 C-4.360625 1.855625 -3.72125 1.71125 -3.0625 1.5625 C-1.02454854 1.18992819 -1.02454854 1.18992819 0 0 Z " fill="#151515" transform="translate(65,90)"/>
<path d="M0 0 C5.94 0 11.88 0 18 0 C18.66 1.32 19.32 2.64 20 4 C13.07 4 6.14 4 -1 4 C-0.67 2.68 -0.34 1.36 0 0 Z " fill="#454545" transform="translate(18,80)"/>
<path d="M0 0 C2.64 0 5.28 0 8 0 C7.53199289 4.05606165 7.12046792 7.46588679 5 11 C3.35 11 1.7 11 0 11 C0 7.37 0 3.74 0 0 Z " fill="#8A67AA" transform="translate(94,99)"/>
<path d="M0 0 C3.81684226 1.55500981 6.19195732 4.03595495 9 7 C7.875 8.5 7.875 8.5 6 10 C2.8125 10.1875 2.8125 10.1875 0 10 C-1.58538318 7.48203847 -2.0373656 6.32134414 -1.6875 3.3125 C-1 1 -1 1 0 0 Z " fill="#B91B17" transform="translate(81,76)"/>
<path d="M0 0 C0.99 0.33 1.98 0.66 3 1 C2.34 3.31 1.68 5.62 1 8 C0.34 7.01 -0.32 6.02 -1 5 C-1.53625 5.5775 -2.0725 6.155 -2.625 6.75 C-5 9 -5 9 -7.9375 10.8125 C-11.67956857 13.48540612 -13.49536351 16.16937949 -16 20 C-16.66 19.67 -17.32 19.34 -18 19 C-14.81073794 12.18928615 -10.28998381 7.74875078 -3.734375 4.140625 C-1.68983298 2.95767089 -1.68983298 2.95767089 0 0 Z " fill="#1D1202" transform="translate(73,57)"/>
<path d="M0 0 C1.72880982 -0.05449838 3.45812712 -0.09301688 5.1875 -0.125 C6.15042969 -0.14820312 7.11335938 -0.17140625 8.10546875 -0.1953125 C11.12812778 0.0086456 13.26769985 0.73125368 16 2 C16 2.66 16 3.32 16 4 C15.34 4 14.68 4 14 4 C14 4.66 14 5.32 14 6 C13.34 6 12.68 6 12 6 C11.34 5.01 10.68 4.02 10 3 C9.21625 3.185625 8.4325 3.37125 7.625 3.5625 C5 4 5 4 3 3 C3 3.66 3 4.32 3 5 C1.68 4.67 0.36 4.34 -1 4 C-0.34 3.67 0.32 3.34 1 3 C0.67 2.01 0.34 1.02 0 0 Z " fill="#524503" transform="translate(64,71)"/>
<path d="M0 0 C0.66 0 1.32 0 2 0 C3.57924842 3.15849685 3.14316514 6.5365128 3.125 10 C3.12886719 10.73734375 3.13273437 11.4746875 3.13671875 12.234375 C3.1266598 17.7466804 3.1266598 17.7466804 2 20 C1.34 20 0.68 20 0 20 C0 13.4 0 6.8 0 0 Z " fill="#2F0705" transform="translate(61,22)"/>
<path d="M0 0 C0.268125 0.556875 0.53625 1.11375 0.8125 1.6875 C1.204375 2.450625 1.59625 3.21375 2 4 C2.4125 4.86625 2.825 5.7325 3.25 6.625 C5.4804804 9.65208055 7.41422344 10.12347684 11 11 C11 11.33 11 11.66 11 12 C8.03 12 5.06 12 2 12 C1.67 10.35 1.34 8.7 1 7 C-4.94 7 -10.88 7 -17 7 C-17 6.67 -17 6.34 -17 6 C-11.72 6 -6.44 6 -1 6 C-1 4.35 -1 2.7 -1 1 C-0.67 0.67 -0.34 0.34 0 0 Z " fill="#12120C" transform="translate(35,73)"/>
<path d="M0 0 C0.391875 0.556875 0.78375 1.11375 1.1875 1.6875 C5.17386051 6.77354616 10.07050798 10.8660456 15 15 C14.67 15.99 14.34 16.98 14 18 C12.2244709 16.58922306 10.45474969 15.17113464 8.6875 13.75 C7.70136719 12.96109375 6.71523437 12.1721875 5.69921875 11.359375 C0.09988808 6.46502518 0.09988808 6.46502518 -0.1875 2.25 C-0.125625 1.5075 -0.06375 0.765 0 0 Z " fill="#102118" transform="translate(77,58)"/>
<path d="M0 0 C1.61648437 0.04060547 1.61648437 0.04060547 3.265625 0.08203125 C4.08546875 0.11683594 4.9053125 0.15164062 5.75 0.1875 C5.42 1.1775 5.09 2.1675 4.75 3.1875 C3.76 3.1875 2.77 3.1875 1.75 3.1875 C1.75 4.8375 1.75 6.4875 1.75 8.1875 C0.76 8.6825 0.76 8.6825 -0.25 9.1875 C-0.25 7.2075 -0.25 5.2275 -0.25 3.1875 C-3.55 3.1875 -6.85 3.1875 -10.25 3.1875 C-5.93072606 -0.05195545 -5.09798489 -0.16623864 0 0 Z " fill="#282218" transform="translate(69.25,46.8125)"/>
<path d="M0 0 C0.99 0 1.98 0 3 0 C3.02697137 2.60423592 3.04682489 5.20819244 3.0625 7.8125 C3.07087891 8.55048828 3.07925781 9.28847656 3.08789062 10.04882812 C3.10259828 13.29922068 3.03531702 15.89404895 2 19 C1.34 19 0.68 19 0 19 C0 12.73 0 6.46 0 0 Z " fill="#170302" transform="translate(80,21)"/>
<path d="M0 0 C2.5654594 2.5654594 2.54046087 4.47686668 3 8 C2.01 8 1.02 8 0 8 C0 8.99 0 9.98 0 11 C-0.99 11 -1.98 11 -3 11 C-2.53199289 6.94393835 -2.12046792 3.53411321 0 0 Z " fill="#9F382E" transform="translate(93,90)"/>
<path d="M0 0 C1.97119141 0.04833984 1.97119141 0.04833984 4.3515625 0.4609375 C5.62773438 0.67363281 5.62773438 0.67363281 6.9296875 0.890625 C7.81914063 1.05046875 8.70859375 1.2103125 9.625 1.375 C10.5221875 1.52710938 11.419375 1.67921875 12.34375 1.8359375 C14.56442949 2.2139255 16.78277526 2.60232838 19 3 C19 3.33 19 3.66 19 4 C16.62468606 4.0543965 14.25064117 4.09385864 11.875 4.125 C11.20984375 4.14175781 10.5446875 4.15851562 9.859375 4.17578125 C5.50483944 4.21847278 2.04399886 3.59996217 -2 2 C-1.34 1.34 -0.68 0.68 0 0 Z " fill="#121111" transform="translate(50,45)"/>
<path d="M0 0 C2.0625 0.4375 2.0625 0.4375 4 1 C3.01 1.33 2.02 1.66 1 2 C1.33 5.96 1.66 9.92 2 14 C-1.3878628 9.4828496 -1.3878628 9.4828496 -1.25 5.3125 C-1.23453125 4.52488281 -1.2190625 3.73726562 -1.203125 2.92578125 C-1 1 -1 1 0 0 Z " fill="#0B0E06" transform="translate(75,47)"/>
<path d="M0 0 C0.66 0 1.32 0 2 0 C2 2.97 2 5.94 2 9 C1.01 9 0.02 9 -1 9 C-1.09765625 2.84765625 -1.09765625 2.84765625 -1 1 C-0.67 0.67 -0.34 0.34 0 0 Z " fill="#434343" transform="translate(65,90)"/>
<path d="M0 0 C0.33 0 0.66 0 1 0 C2 6.625 2 6.625 2 10 C0.68 10 -0.64 10 -2 10 C-1.85950482 8.52031676 -1.71245174 7.04125484 -1.5625 5.5625 C-1.48128906 4.73878906 -1.40007813 3.91507812 -1.31640625 3.06640625 C-1 1 -1 1 0 0 Z " fill="#040501" transform="translate(36,64)"/>
<path d="M0 0 C3.87132028 0.57352893 6.08172796 2.48704352 9 5 C8.67 5.99 8.34 6.98 8 8 C6.66372225 6.85760183 5.33104612 5.71098945 4 4.5625 C3.2575 3.92441406 2.515 3.28632812 1.75 2.62890625 C1.1725 2.09136719 0.595 1.55382812 0 1 C0 0.67 0 0.34 0 0 Z " fill="#151A08" transform="translate(83,68)"/>
<path d="M0 0 C0.99 0.33 1.98 0.66 3 1 C2.34 3.31 1.68 5.62 1 8 C0.34 7.01 -0.32 6.02 -1 5 C-1.99 5.66 -2.98 6.32 -4 7 C-2.79618552 4.50638429 -1.54571278 2.31856917 0 0 Z " fill="#2C2A01" transform="translate(73,57)"/>
<path d="M0 0 C1 3 1 3 -0.4375 6.1875 C-1.2109375 7.5796875 -1.2109375 7.5796875 -2 9 C-2.66 7.68 -3.32 6.36 -4 5 C-2.68 3.35 -1.36 1.7 0 0 Z " fill="#051414" transform="translate(44,46)"/>
<path d="M0 0 C0.99 0 1.98 0 3 0 C3 1.98 3 3.96 3 6 C2.01 6 1.02 6 0 6 C0 4.02 0 2.04 0 0 Z " fill="#424242" transform="translate(64,101)"/>
<path d="M0 0 C2.475 0.495 2.475 0.495 5 1 C5 1.66 5 2.32 5 3 C4.34 3 3.68 3 3 3 C3 3.66 3 4.32 3 5 C2.34 5 1.68 5 1 5 C0.67 3.35 0.34 1.7 0 0 Z " fill="#AD1A15" transform="translate(75,72)"/>
</svg>
